<svg width="27" height="24" viewBox="0 0 27 24" fill="none" xmlns="http://www.w3.org/2000/svg">
<path d="M22.9126 1.78511H17.2924V1.73504C17.2924 0.78381 16.4494 0.0328369 15.3816 0.0328369H11.5598C10.492 0.0328369 9.64897 0.78381 9.64897 1.73504V1.78511H4.02877C3.43865 1.78511 2.96094 2.21066 2.96094 2.73634V3.68757C2.96094 4.21326 3.43865 4.63881 4.02877 4.63881H22.9126C23.5028 4.63881 23.9805 4.21326 23.9805 3.68757V2.73634C23.9805 2.21066 23.5028 1.78511 22.9126 1.78511Z" fill="#7D90B2"/>
<path d="M21.5077 5.94049H5.43397C5.12486 5.94049 4.90005 6.16578 4.92815 6.44114L5.71498 20.9349C5.79928 22.537 7.28864 23.8137 9.0871 23.8137H17.8265C19.625 23.8137 21.1143 22.562 21.1986 20.9349L21.9854 6.44114C22.0416 6.19082 21.7887 5.94049 21.5077 5.94049ZM11.7286 19.9336C11.7286 20.3842 11.3352 20.7347 10.8294 20.7347C10.3235 20.7347 9.93013 20.3842 9.93013 19.9336V9.84555C9.93013 9.39497 10.3235 9.04451 10.8294 9.04451C11.3352 9.04451 11.7286 9.39497 11.7286 9.84555V19.9336ZM17.0116 19.9336C17.0116 20.3842 16.6182 20.7347 16.1123 20.7347C15.6065 20.7347 15.2131 20.3842 15.2131 19.9336V9.84555C15.2131 9.39497 15.6065 9.04451 16.1123 9.04451C16.6182 9.04451 17.0116 9.39497 17.0116 9.84555V19.9336Z" fill="#7D90B2"/>
</svg>
