<svg width="27" height="25" viewBox="0 0 27 25" fill="none" xmlns="http://www.w3.org/2000/svg">
<path d="M18.8021 22.6685C18.8021 21.6835 17.9198 20.885 16.8315 20.885H10.2628C9.17452 20.885 8.29226 21.6835 8.29226 22.6685C8.29226 23.6536 9.17452 24.4521 10.2628 24.4521H16.8315C17.9198 24.4521 18.8021 23.6536 18.8021 22.6685Z" fill="#0A65FF"/>
<path d="M22.7432 13.7507C22.7432 12.4373 21.5669 11.3726 20.1158 11.3726H6.97854C5.52744 11.3726 4.35109 12.4373 4.35109 13.7507C4.35109 15.0641 5.52744 16.1288 6.97854 16.1288H20.1158C21.5669 16.1288 22.7432 15.0641 22.7432 13.7507Z" fill="#0A65FF"/>
<path d="M0.409912 3.64387C0.409912 5.28559 1.88035 6.61647 3.69422 6.61647H23.4001C25.214 6.61647 26.6844 5.28559 26.6844 3.64387C26.6844 2.00214 25.214 0.671265 23.4001 0.671265H3.69422C1.88035 0.671265 0.409912 2.00214 0.409912 3.64387Z" fill="#0A65FF"/>
</svg>
