<svg width="27" height="24" viewBox="0 0 27 24" fill="none" xmlns="http://www.w3.org/2000/svg">
<path d="M15.5086 12.1757C15.5086 13.3662 14.533 14.3186 13.3135 14.3186C12.094 14.3186 11.1184 13.3662 11.1184 12.1757C11.1184 10.9852 12.094 10.0328 13.3135 10.0328C14.533 10.0328 15.5086 10.9852 15.5086 12.1757ZM21.1184 10.0328C19.8988 10.0328 18.9232 10.9852 18.9232 12.1757C18.9232 13.3662 19.8988 14.3186 21.1184 14.3186C22.3379 14.3186 23.3135 13.3662 23.3135 12.1757C23.3135 10.9852 22.3379 10.0328 21.1184 10.0328ZM5.5086 10.0328C4.28909 10.0328 3.31348 10.9852 3.31348 12.1757C3.31348 13.3662 4.28909 14.3186 5.5086 14.3186C6.72811 14.3186 7.70372 13.3662 7.70372 12.1757C7.70372 10.9852 6.72811 10.0328 5.5086 10.0328Z" fill="#7D90B2"/>
</svg>
